<svg xmlns="http://www.w3.org/2000/svg" width="119.713" height="58.573" viewBox="0 0 119.713 58.573">
  <g id="Group_29" data-name="Group 29" transform="translate(-133.192 -206.367)">
    <path id="Union_1" data-name="Union 1" d="M9.419,44.8C-4.113,44.521-.448,25.42,4.345,18.725a27.509,27.509,0,0,1,12.29-9.308C10.445,4.6,8.57,0,8.57,0s23,11.913,45.836,11.913S99.934,0,99.934,0,92.19,20.751,54.407,20.25C42.719,20.1,33.877,18.1,27.237,15.415A33.371,33.371,0,0,0,20.979,26.76c-1.811,6.546,1.882,18.049-11.086,18.05C9.737,44.809,9.581,44.808,9.419,44.8ZM12.1,17.316a17.7,17.7,0,0,0-.986,9.444s1.375-6.942,4.51-10.713a12.688,12.688,0,0,1,5.393-3.673c-.941-.551-1.818-1.112-2.632-1.675C16.86,12.108,13.478,14.262,12.1,17.316Z" transform="translate(152.971 220.131)" fill="#ff6348"/>
    <path id="Path_3" data-name="Path 3" d="M634.592,204.368h0s-7.28-2.874-8.049-7.559-3.769-6.451-7-4.55-3.99,9.519,4.83,11.339S634.592,204.368,634.592,204.368Z" transform="translate(-484.115 14.861)" fill="#ff6348"/>
    <path id="Path_4" data-name="Path 4" d="M628.443,191.7h0s-4.69,1.852-5.186,4.87-2.429,4.156-4.509,2.931-2.57-6.133,3.112-7.305S628.443,191.7,628.443,191.7Z" transform="translate(-475.472 33.908)" fill="#233142"/>
    <text id="Unifood" transform="translate(184.057 258.4)" fill="#233142" font-size="16" font-family="SegoeUI-Semilight, Segoe UI" font-weight="300"><tspan x="0" y="0">Unifood</tspan></text>
  </g>
</svg>
